<svg width="35" height="88" viewBox="0 0 35 88" fill="none" xmlns="http://www.w3.org/2000/svg">
<path d="M22.0172 6.59178C19.6802 8.34054 17.3972 11.1598 18.7352 14.2188C20.0732 17.2777 28.6352 17.5856 30.4352 16.3271C32.7752 14.6927 30.7082 7.41441 28.8842 7.37083C28.7462 4.67141 23.9702 5.12903 22.0172 6.59178Z" fill="#263238"/>
<path d="M18.7441 36.051C18.7441 36.051 19.6831 51.5611 20.7181 59.9589C20.8231 67.8447 22.8181 85.6592 22.8181 85.6592H25.0111C25.3801 76.82 28.0891 68.5665 26.2891 60.7707C30.4891 45.4622 27.6121 36.0619 27.6121 36.0619L18.7441 36.051Z" fill="#FFB573"/>
<path d="M21.1321 36.062C21.1321 36.062 25.6471 53.2663 26.8831 60.5936C28.1851 68.2914 30.1231 83.2295 30.0331 85.6537H31.9261C31.9261 85.6537 35.1061 70.5414 32.1631 60.866C34.5901 39.0746 28.6021 36.0783 28.6021 36.0783L21.1321 36.062Z" fill="#FFB573"/>
<path d="M10.3053 16.1637C10.1643 15.2348 8.28628 15.1558 8.28628 15.1558L7.38628 14.7445C7.2283 14.6567 7.03891 14.628 6.8581 14.6646C6.6773 14.7012 6.51923 14.8002 6.41729 14.9406L6.11729 15.3928C6.02991 15.5708 6.01545 15.7712 6.07651 15.958C6.13756 16.1448 6.27013 16.3057 6.45029 16.4116L6.72329 16.5913C7.18773 16.8927 7.73723 17.0676 8.30728 17.0953L9.13828 17.1361C9.32078 17.1457 9.50368 17.1254 9.67828 17.0762C9.88504 17.0172 10.0614 16.8924 10.1749 16.7247C10.2885 16.5571 10.3316 16.3579 10.2963 16.1637H10.3053Z" fill="#FFB573"/>
<path d="M20.1963 21.5979C20.0823 21.7041 20.0223 21.7559 19.9383 21.824L19.7013 22.0146C19.5453 22.1345 19.3833 22.2462 19.2243 22.3578C18.9003 22.5758 18.5703 22.7773 18.2313 22.968C17.551 23.3398 16.8363 23.6569 16.0953 23.9159C14.6195 24.4372 13.0527 24.714 11.4693 24.7331H11.3313C11.259 24.7317 11.1868 24.7263 11.1153 24.7168C10.9744 24.698 10.8364 24.6642 10.7043 24.616C10.4818 24.5327 10.2784 24.4127 10.1043 24.2619C9.87882 24.0608 9.69491 23.8246 9.56128 23.5645C9.37416 23.1962 9.23424 22.8096 9.14428 22.4123C8.9852 21.7285 8.8849 21.0346 8.84428 20.3367C8.76304 19 8.79313 17.6596 8.93428 16.3271C8.95099 16.1781 9.02742 16.04 9.14902 15.9389C9.27062 15.8378 9.42891 15.7808 9.59376 15.7788C9.75862 15.7768 9.91854 15.8299 10.0431 15.9279C10.1677 16.026 10.2482 16.1623 10.2693 16.3107V16.3271C10.4313 17.5964 10.6173 18.8848 10.8693 20.1188C10.9804 20.7164 11.1337 21.3069 11.3283 21.8866C11.4058 22.1237 11.5124 22.3522 11.6463 22.5676C11.7003 22.6466 11.7543 22.6847 11.7303 22.6575C11.6906 22.6185 11.6412 22.5886 11.5863 22.5703C11.5376 22.5502 11.4861 22.5365 11.4333 22.5295H11.3523C11.9972 22.476 12.6369 22.3795 13.2663 22.2407C13.8899 22.0993 14.5015 21.9172 15.0963 21.6959C15.6886 21.4657 16.2595 21.1925 16.8033 20.8788C17.0763 20.7262 17.3403 20.5655 17.5953 20.3939C17.7213 20.3095 17.8413 20.2223 17.9613 20.1351L18.1353 20.0044L18.2673 19.8981L18.3453 19.8355C18.6069 19.6227 18.9497 19.5112 19.3006 19.5246C19.6515 19.538 19.9828 19.6753 20.2238 19.9073C20.4648 20.1393 20.5965 20.4475 20.5908 20.7664C20.5851 21.0852 20.4424 21.3895 20.1933 21.6142L20.1963 21.5979Z" fill="#FFB573"/>
<path d="M21.6722 18.5744C19.2992 18.2148 16.8092 19.6803 15.5192 20.8734C14.8532 22.6929 16.9862 24.9048 16.9862 24.9048C16.9862 24.9048 20.0252 23.2105 21.1202 22.0528C22.2152 20.8952 23.0402 18.7814 21.6722 18.5744Z" fill="#E0E0E0"/>
<path d="M29.0222 35.855C29.0222 35.855 32.3702 38.0123 33.0002 45.1844C33.2522 48.0091 33.7052 59.278 34.6592 64.1266C31.2242 66.3548 20.9402 66.0497 19.3292 64.7476C19.7852 54.9415 15.6572 41.9348 18.6512 35.953C23.6072 35.4001 29.0222 35.855 29.0222 35.855Z" fill="#263238"/>
<path opacity="0.2" d="M25.6262 56.4233C25.6712 52.302 25.0022 46.6308 22.9712 43.2694C23.6642 47.4643 25.6262 56.4233 25.6262 56.4233Z" fill="black"/>
<path d="M17.0791 21.8975C17.0791 24.2319 15.0301 25.4577 17.3491 27.2555C17.4871 29.2712 17.6491 32.8804 18.3301 36.1682C19.0351 37.0589 24.189 36.9854 29.544 35.9312C28.845 33.1119 29.103 28.5194 30.936 22.238C31.0337 21.8894 31.051 21.5263 30.9869 21.1713C30.9228 20.8164 30.7786 20.4773 30.5634 20.1753C30.3482 19.8733 30.0667 19.6149 29.7364 19.4163C29.4062 19.2177 29.0343 19.0831 28.644 19.0211C28.203 18.9502 27.744 18.8849 27.258 18.8304C25.5833 18.6062 23.8929 18.4915 22.2001 18.4872C21.6541 18.4872 21.0871 18.5199 20.5471 18.5526C19.6089 18.6052 18.7281 18.9804 18.0839 19.6018C17.4396 20.2232 17.0803 21.0441 17.0791 21.8975Z" fill="#E0E0E0"/>
<path d="M28.0192 25.9506L21.7343 27.2429C21.4951 27.2921 21.3452 27.508 21.3993 27.7252L23.4342 35.8837C23.4883 36.1009 23.7261 36.2371 23.9653 36.1879L30.2502 34.8956C30.4893 34.8464 30.6393 34.6305 30.5851 34.4134L28.5503 26.2548C28.4961 26.0376 28.2583 25.9015 28.0192 25.9506Z" fill="#FF4040"/>
<path d="M22.8212 21.4971C22.8212 21.4971 21.8042 22.603 20.9642 22.8591L20.8682 23.4039C21.9303 23.2807 22.9107 22.8216 23.6372 22.1073L22.8212 21.4971Z" fill="#FF4040"/>
<path d="M20.0582 20.8298C20.0582 20.8298 20.0162 22.268 20.4542 22.9708L20.1272 23.4393C19.4199 22.7085 19.0185 21.7751 18.9932 20.8025L20.0582 20.8298Z" fill="#FF4040"/>
<path d="M27.0513 13.6495C26.6493 15.0986 26.1783 17.7708 27.2583 18.8249C27.2583 18.8249 23.2353 19.8219 20.6133 23.0906C19.4133 19.6557 22.2123 18.4817 22.2123 18.4817C24.0453 18.2093 24.0693 16.9945 23.8173 15.8286L27.0513 13.6495Z" fill="#FFB573"/>
<path opacity="0.2" d="M25.7341 14.5402L23.8201 15.8341C23.8819 16.1031 23.9181 16.3766 23.9281 16.6513C24.6241 16.6077 25.6141 15.9839 25.7281 15.3329C25.7807 15.071 25.7827 14.8028 25.7341 14.5402V14.5402Z" fill="black"/>
<path d="M28.9172 11.0672C28.1462 13.4153 27.8762 14.4258 26.2532 15.3493C23.8112 16.7357 20.8532 15.3084 20.8352 12.786C20.8352 10.5143 22.0862 7.06579 24.8672 6.68989C27.6482 6.31398 29.7002 8.71649 28.9172 11.0672Z" fill="#FFB573"/>
<path d="M26.9011 7.6378C26.1721 9.90138 26.7961 12.2685 28.2841 12.5409C30.3511 11.8408 30.2491 9.75701 29.7211 8.80364C29.1931 7.85027 27.3211 6.33304 26.9011 7.6378Z" fill="#263238"/>
<path d="M28.0319 11.7046C26.8829 12.0505 26.6609 12.7506 26.6609 12.7506C26.6609 12.7506 27.4499 12.2439 28.2059 12.3393C28.0962 12.1422 28.0367 11.9253 28.0319 11.7046Z" fill="#263238"/>
<path d="M25.161 10.8465C25.11 11.0399 24.957 11.1707 24.816 11.1407C24.675 11.1108 24.6 10.9228 24.651 10.7294C24.702 10.536 24.855 10.4025 24.996 10.4352C25.137 10.4679 25.2 10.6531 25.161 10.8465Z" fill="#263238"/>
<path d="M22.5002 10.2718C22.4492 10.4652 22.2962 10.596 22.1551 10.5633C22.0141 10.5306 21.9391 10.3481 21.9901 10.152C22.0411 9.95584 22.1941 9.82781 22.3351 9.8605C22.4762 9.89318 22.5542 10.0757 22.5002 10.2718Z" fill="#263238"/>
<path d="M22.4012 9.88504L21.9182 9.63171C21.9182 9.63171 22.0892 10.0567 22.4012 9.88504Z" fill="#263238"/>
<path d="M23.0042 10.5878C22.6992 10.9867 22.3336 11.3443 21.9182 11.6502C22.0094 11.7461 22.1222 11.8232 22.249 11.8763C22.3758 11.9294 22.5136 11.9573 22.6532 11.958L23.0042 10.5878Z" fill="#ED893E"/>
<path d="M28.9321 13.4234C28.7732 13.5928 28.576 13.7291 28.3539 13.8231C28.1319 13.9171 27.8901 13.9666 27.6451 13.9682C27.0181 13.9519 26.9101 13.2981 27.2551 12.7615C27.5551 12.2766 28.2631 11.7019 28.8091 11.977C29.3551 12.2521 29.3581 12.9821 28.9321 13.4234Z" fill="#FFB573"/>
<path d="M25.662 10.0131C25.6297 9.99854 25.605 9.97312 25.593 9.94223C25.5449 9.7998 25.4615 9.66927 25.3491 9.56066C25.2368 9.45206 25.0986 9.36827 24.945 9.31573C24.9119 9.30742 24.8836 9.28768 24.8662 9.26071C24.8488 9.23374 24.8437 9.20168 24.852 9.17136C24.8558 9.15641 24.863 9.14232 24.873 9.12999C24.8831 9.11765 24.8958 9.10733 24.9104 9.09966C24.9251 9.092 24.9413 9.08715 24.9581 9.08542C24.9749 9.0837 24.9919 9.08514 25.008 9.08965C25.2043 9.1517 25.3818 9.25478 25.5262 9.39058C25.6705 9.52637 25.7777 9.69108 25.839 9.87141C25.8451 9.88586 25.8478 9.90129 25.8469 9.91673C25.8461 9.93217 25.8417 9.94728 25.8341 9.96111C25.8265 9.97493 25.8158 9.98717 25.8027 9.99705C25.7896 10.0069 25.7744 10.0142 25.758 10.0185C25.7264 10.0277 25.6921 10.0258 25.662 10.0131V10.0131Z" fill="#263238"/>
<path d="M21.5342 9.11143C21.5001 9.11245 21.4669 9.10175 21.4412 9.08146C21.4175 9.05913 21.4043 9.02936 21.4043 8.99838C21.4043 8.96741 21.4175 8.93763 21.4412 8.9153C21.5749 8.77488 21.744 8.66588 21.9342 8.59758C22.1243 8.52929 22.3298 8.50372 22.5332 8.52305C22.5674 8.52841 22.5981 8.54556 22.6187 8.57093C22.6394 8.5963 22.6485 8.62794 22.6442 8.65925C22.639 8.68995 22.6206 8.71753 22.593 8.73592C22.5655 8.75431 22.531 8.762 22.4972 8.75731C22.3362 8.74275 22.1737 8.7639 22.0238 8.81894C21.8738 8.87398 21.7408 8.96126 21.6362 9.07329C21.6232 9.08595 21.6074 9.09592 21.5898 9.1025C21.5721 9.10908 21.5532 9.11213 21.5342 9.11143V9.11143Z" fill="#263238"/>
<path d="M25.0562 10.4625L24.5732 10.2064C24.5732 10.2064 24.7442 10.6341 25.0562 10.4625Z" fill="#263238"/>
<path d="M24.9 29.8024L22.5 29.3802L22.77 31.8835C22.77 31.8835 24.57 31.8127 25.596 31.0663L25.692 30.7394C25.581 30.1974 25.446 29.9985 24.9 29.8024Z" fill="#FFB573"/>
<path d="M21.0572 30.448L21.3362 31.5076C21.377 31.6598 21.4791 31.7925 21.6224 31.8798C21.7656 31.967 21.9397 32.0023 22.1102 31.9788L22.7822 31.8835L22.5122 29.3802L21.4892 29.718C21.3313 29.7705 21.2 29.8739 21.1204 30.0084C21.0408 30.143 21.0183 30.2994 21.0572 30.448V30.448Z" fill="#FFB573"/>
<path d="M30.2671 20.8515C30.9963 22.1196 31.6327 23.4299 32.1721 24.774C32.4421 25.4468 32.6971 26.136 32.9011 26.8415C33.1235 27.5724 33.2741 28.3199 33.3511 29.0751C33.3691 29.2739 33.3781 29.4782 33.3811 29.6852V29.7588V29.8759C33.3738 29.9562 33.3577 30.0355 33.3331 30.1129C33.289 30.263 33.2202 30.4063 33.1291 30.5378C32.9901 30.7336 32.8083 30.9014 32.5951 31.0309C32.3343 31.1884 32.0463 31.3053 31.7431 31.3768C31.5133 31.4344 31.2799 31.479 31.0441 31.5103C30.2264 31.6037 29.4012 31.6319 28.5781 31.5947C27.0175 31.5293 25.4643 31.36 23.9311 31.0881C23.765 31.0631 23.6154 30.9822 23.5121 30.8615C23.4088 30.7408 23.3594 30.5892 23.3738 30.4369C23.3882 30.2846 23.4653 30.1428 23.5897 30.0398C23.7141 29.9369 23.8767 29.8803 24.0451 29.8814V29.8814C25.5451 29.8568 27.0631 29.8214 28.5241 29.7206C29.2235 29.6766 29.9184 29.5856 30.6031 29.4483C30.7428 29.4189 30.8802 29.3807 31.0141 29.3338C31.0804 29.3172 31.1419 29.2874 31.1941 29.2467C31.1365 29.2776 31.0889 29.3218 31.0561 29.3747C31.0162 29.4321 30.9859 29.4945 30.9661 29.5599C30.9555 29.5967 30.9474 29.634 30.9421 29.6716C30.9405 29.6897 30.9405 29.708 30.9421 29.7261V29.7261C30.9421 29.5872 30.9151 29.4537 30.8911 29.3012C30.6287 28.0387 30.2194 26.8051 29.6701 25.6211C29.1271 24.3926 28.5061 23.1424 27.8701 21.9629V21.9411C27.7411 21.6561 27.7352 21.3374 27.8534 21.0485C27.9716 20.7597 28.2053 20.5218 28.5079 20.3824C28.8105 20.2429 29.1599 20.2121 29.4865 20.296C29.813 20.3799 30.0928 20.5724 30.2701 20.8352L30.2671 20.8515Z" fill="#FFB573"/>
<path d="M28.8 19.1055C30.519 19.3942 31.284 20.797 32.532 23.5972C32.151 25.4822 29.1 26.4737 29.1 26.4737C29.1 26.4737 27.348 23.6544 27 22.159C26.652 20.6636 27.066 18.814 28.8 19.1055Z" fill="#E0E0E0"/>
<path d="M25.1672 85.681C25.1532 85.6447 25.1259 85.6138 25.0899 85.5935C25.0539 85.5732 25.0113 85.5647 24.9692 85.5693L22.9352 85.5421C22.7271 85.5294 22.5192 85.57 22.3352 85.6592C21.4041 86.1874 20.3582 86.5265 19.2692 86.6535C18.8372 86.7134 19.0322 87.3753 20.0522 87.3862C21.7352 87.4025 22.0412 87.2881 23.4782 87.3017C24.7052 87.3154 24.1202 87.3644 25.0952 87.3862C25.3292 87.3862 25.5212 87.2527 25.4912 87.1138L25.1672 85.681Z" fill="#263238"/>
<path d="M32.1841 85.681C32.1696 85.645 32.1422 85.6144 32.1063 85.5941C32.0704 85.5739 32.0281 85.5651 31.9861 85.5693L30.3271 85.5421C30.1189 85.5285 29.9108 85.5692 29.7271 85.6592C29.1271 86.0378 29.2111 86.4764 27.8431 86.6534C27.4111 86.7134 27.6241 87.3753 28.6441 87.3862C30.3271 87.4025 30.2251 87.3017 30.9091 87.3017C31.5931 87.3017 31.1731 87.3644 32.1511 87.3862C32.3851 87.3862 32.5741 87.2527 32.5381 87.1138L32.1841 85.681Z" fill="#263238"/>
<path d="M21.7141 21.9166C22.5661 21.9493 24.1291 22.584 24.6301 23.2622C25.3381 22.5949 28.1041 21.0449 28.1521 18.9448C27.8136 18.6492 27.3869 18.4503 26.9251 18.3728C26.9251 18.3728 23.2351 19.9935 21.7141 21.9166Z" fill="#FAFAFA"/>
<path d="M20.3342 21.8077C20.3342 21.8077 20.1032 20.1107 22.3652 18.4627C22.1372 18.2938 21.2432 18.4845 21.2432 18.4845C21.2432 18.4845 18.6002 19.5168 18.6782 22.189C19.1545 21.871 19.7486 21.7342 20.3342 21.8077V21.8077Z" fill="#FAFAFA"/>
<path d="M19.9982 22.5268C19.6712 22.6657 19.5422 23.6327 19.9982 23.8588C20.4542 24.0849 20.4092 23.1614 20.6732 22.8455C20.9372 22.5295 20.5712 22.2843 19.9982 22.5268Z" fill="#FF4040"/>
<path d="M20.4002 22.9027C20.1662 23.1751 20.4692 24.1012 20.9732 24.0985C21.4772 24.0958 21.0422 23.2813 21.1412 22.8782C21.2402 22.475 20.7992 22.4233 20.4002 22.9027Z" fill="#FF4040"/>
<path d="M20.4691 23.5918C19.9081 22.8046 19.8691 26.9531 21.2281 28.5875C21.1381 26.9776 22.0891 24.695 20.4691 23.5918Z" fill="#FF4040"/>
<path d="M20.418 23.5564C20.169 22.7556 18.918 26.264 19.611 27.9773C20.004 26.5909 21.471 24.8802 20.418 23.5564Z" fill="#FF4040"/>
<path d="M24.6003 12.707C24.7311 12.6554 24.8565 12.5934 24.9753 12.5218C24.9821 12.5157 24.9874 12.5085 24.991 12.5006C24.9946 12.4926 24.9965 12.4841 24.9965 12.4755C24.9965 12.4669 24.9946 12.4584 24.991 12.4504C24.9874 12.4425 24.9821 12.4353 24.9753 12.4292C24.9629 12.4147 24.9448 12.405 24.9248 12.4019C24.9048 12.3989 24.8843 12.4028 24.8673 12.4128C24.5998 12.5757 24.2955 12.6821 23.9767 12.724C23.6579 12.766 23.3328 12.7425 23.0253 12.6553C23.0163 12.6517 23.0065 12.6497 22.9966 12.6496C22.9868 12.6494 22.9769 12.651 22.9677 12.6543C22.9585 12.6576 22.9501 12.6625 22.943 12.6687C22.9359 12.675 22.9303 12.6824 22.9263 12.6907C22.9196 12.7077 22.9205 12.7264 22.929 12.7427C22.9374 12.7591 22.9526 12.7717 22.9713 12.7779C23.5054 12.9374 24.0855 12.9122 24.6003 12.707V12.707Z" fill="#263238"/>
<path d="M15.8941 14.6274H0.567139V15.0796H15.8941V14.6274Z" fill="#FF4040"/>
<path d="M15.5281 15.0795H0.933105L1.57511 15.3955H14.8861L15.5281 15.0795Z" fill="#FF4040"/>
<path opacity="0.2" d="M15.5281 15.0795H0.933105L1.57511 15.3955H14.8861L15.5281 15.0795Z" fill="black"/>
<path d="M5.47815 2.51406C5.38849 2.51335 5.30272 2.4807 5.23931 2.42313C5.17591 2.36555 5.13994 2.28768 5.13916 2.20626V1.17389C5.13994 1.09248 5.17591 1.0146 5.23931 0.957028C5.30272 0.899457 5.38849 0.8668 5.47815 0.866089V0.866089C5.56782 0.8668 5.65359 0.899457 5.71699 0.957028C5.7804 1.0146 5.81636 1.09248 5.81715 1.17389V2.20626C5.81636 2.28768 5.7804 2.36555 5.71699 2.42313C5.65359 2.4807 5.56782 2.51335 5.47815 2.51406V2.51406Z" fill="#263238"/>
<path d="M6.02417 1.11125V0.975055C6.02417 0.842669 5.90597 0.735352 5.76017 0.735352H5.19616C5.05036 0.735352 4.93216 0.842669 4.93216 0.975055V1.11125C4.93216 1.24364 5.05036 1.35096 5.19616 1.35096H5.76017C5.90597 1.35096 6.02417 1.24364 6.02417 1.11125Z" fill="#263238"/>
<path d="M6.0211 4.75586V1.8113C6.02111 1.77925 6.0073 1.74848 5.98263 1.72557C5.95795 1.70266 5.92438 1.68943 5.8891 1.68872H5.0671C5.03182 1.68943 4.99825 1.70266 4.97357 1.72557C4.9489 1.74848 4.93509 1.77925 4.9351 1.8113V4.75586C4.9352 4.97716 4.88365 5.19596 4.78385 5.39785C4.68405 5.59974 4.53827 5.78013 4.3561 5.92715C4.1746 6.07524 4.02929 6.25623 3.92957 6.45844C3.82984 6.66065 3.7779 6.8796 3.7771 7.10116V14.6546H7.1761V7.10116C7.17586 6.87952 7.12418 6.66041 7.02441 6.45812C6.92465 6.25584 6.77905 6.07491 6.5971 5.92715V5.92715C6.41578 5.77967 6.27076 5.59912 6.1715 5.39729C6.07225 5.19546 6.02101 4.9769 6.0211 4.75586V4.75586Z" fill="#FF4040"/>
<path d="M7.17613 7.99463H4.93213V12.8786H7.17613V7.99463Z" fill="#E0E0E0"/>
<path d="M10.362 14.6274H9.95703C10.0919 14.6356 10.2272 14.6356 10.362 14.6274Z" fill="#FF4040"/>
<path d="M12.8072 14.6274H12.3992C12.535 14.6356 12.6713 14.6356 12.8072 14.6274Z" fill="#FF4040"/>
<path opacity="0.2" d="M9.81909 8.86627V10.1057C9.81909 11.0917 10.4371 11.9116 11.2201 12.0124V14.1915C11.2201 14.5266 10.8601 14.6219 10.5811 14.6437H12.1801C11.9011 14.6219 11.5411 14.5266 11.5411 14.1915V12.0124C12.3241 11.9143 12.9421 11.0944 12.9421 10.1057V8.86627H9.81909Z" fill="#FF4040"/>
<path d="M28.4073 7.70042C27.2073 8.16349 23.1873 8.30513 21.6123 7.99461C23.2413 5.90535 26.9013 5.29247 28.4073 7.70042Z" fill="#263238"/>
<path d="M32.19 15.164C32.1784 15.1638 32.167 15.1612 32.1566 15.1565C32.1463 15.1518 32.1372 15.145 32.13 15.1367C32.091 15.0877 31.206 13.9055 31.188 10.7403C31.188 9.41921 30.741 8.35688 29.988 7.82027C29.7924 7.67348 29.5615 7.5704 29.314 7.51931C29.0666 7.46822 28.8093 7.47054 28.563 7.52609C28.5534 7.52805 28.5434 7.52827 28.5336 7.52674C28.5239 7.5252 28.5146 7.52194 28.5062 7.51713C28.4979 7.51233 28.4906 7.50607 28.4849 7.49873C28.4792 7.49138 28.4752 7.48309 28.473 7.47433C28.4709 7.46557 28.4706 7.4565 28.4723 7.44765C28.474 7.4388 28.4776 7.43034 28.4829 7.42275C28.4882 7.41517 28.4951 7.4086 28.5031 7.40343C28.5112 7.39826 28.5204 7.39458 28.53 7.39261C28.7977 7.33477 29.0764 7.33342 29.3448 7.38867C29.6132 7.44391 29.864 7.55429 30.078 7.71131C30.873 8.27517 31.332 9.37835 31.341 10.7376C31.359 13.8538 32.241 15.0468 32.241 15.0577C32.2468 15.0651 32.2509 15.0733 32.2531 15.0821C32.2553 15.0909 32.2556 15.1 32.2539 15.1088C32.2522 15.1177 32.2486 15.1262 32.2433 15.1337C32.238 15.1413 32.2311 15.1479 32.223 15.1531C32.213 15.1588 32.2018 15.1625 32.19 15.164Z" fill="#263238"/>
</svg>
