<svg width="44" height="92" viewBox="0 0 44 92" fill="none" xmlns="http://www.w3.org/2000/svg">
<path d="M15.7781 3.12823C16.6151 4.16877 16.6121 5.78951 16.3271 6.66934C14.8271 6.05101 15.0611 4.27501 15.0611 4.27501L15.7781 3.12823Z" fill="#263238"/>
<path d="M20.2633 16.0069L21.1273 16.8704L22.0273 17.7475C22.6273 18.3277 23.2273 18.8943 23.8453 19.4391C24.1453 19.7115 24.4453 19.9839 24.7663 20.2236C25.0873 20.4633 25.3663 20.7193 25.6813 20.94C25.9963 21.1606 26.2813 21.3567 26.5603 21.5256C26.7703 21.6535 26.991 21.7665 27.2203 21.8634L26.7613 21.798C26.6251 21.7831 26.4875 21.811 26.3713 21.877C26.3713 21.877 26.4433 21.877 26.5453 21.8225C26.8238 21.6676 27.0824 21.4849 27.3163 21.2777C27.9306 20.7478 28.5049 20.1808 29.0353 19.5807C29.6083 18.957 30.1663 18.2923 30.7213 17.6195C31.2763 16.9467 31.8313 16.2575 32.3773 15.5793L32.4043 15.5493C32.5955 15.3202 32.8692 15.1593 33.1777 15.0945C33.4861 15.0297 33.8099 15.0652 34.0925 15.1948C34.3751 15.3244 34.5987 15.5399 34.7244 15.8038C34.85 16.0676 34.8698 16.3632 34.7803 16.6389C34.4765 17.4998 34.125 18.3462 33.7273 19.1749C33.3343 19.9921 32.8993 20.8092 32.4073 21.6264C31.8968 22.4763 31.3066 23.2847 30.6433 24.0425C30.2476 24.4905 29.8011 24.8996 29.3113 25.2628C28.9866 25.5012 28.6309 25.7025 28.2523 25.8621C27.696 26.0975 27.0867 26.2113 26.4733 26.1944C26.3601 26.1906 26.2476 26.1769 26.1373 26.1536L26.0113 26.1291C25.354 25.9861 24.7184 25.7711 24.1183 25.4889C23.6156 25.2564 23.1296 24.9953 22.6633 24.7072C21.8079 24.1844 20.9921 23.6102 20.2213 22.9884C19.4653 22.3918 18.7633 21.7681 18.0823 21.1334C17.7463 20.812 17.4103 20.4905 17.0893 20.1582C16.7683 19.8259 16.4593 19.5017 16.1203 19.1231C15.7419 18.6242 15.5804 18.0158 15.6668 17.4151C15.7533 16.8145 16.0815 16.2641 16.5884 15.8703C17.0953 15.4764 17.7448 15.2668 18.4117 15.282C19.0786 15.2972 19.7158 15.536 20.2003 15.9525L20.2633 16.0069Z" fill="#E0E0E0"/>
<path d="M33.7211 17.0503L36.3941 17.1674L35.5271 13.8987C35.5271 13.8987 33.0401 14.0648 32.6411 15.2252C32.5994 15.3546 32.6078 15.4931 32.6651 15.6175L33.1571 16.688C33.2036 16.7907 33.2813 16.8793 33.3812 16.9435C33.481 17.0076 33.5989 17.0447 33.7211 17.0503V17.0503Z" fill="#FF8B7B"/>
<path d="M38.7791 15.2279L38.2631 14.1384C38.1627 13.9272 37.9833 13.755 37.7565 13.6523C37.5298 13.5497 37.2704 13.5231 37.0242 13.5772L35.5242 13.9123L36.3912 17.181L38.1911 16.5218C38.325 16.4738 38.4468 16.4019 38.5493 16.3102C38.6518 16.2185 38.7329 16.109 38.7878 15.9883C38.8427 15.8675 38.8702 15.7379 38.8687 15.6073C38.8672 15.4767 38.8368 15.3477 38.7791 15.2279V15.2279Z" fill="#FF8B7B"/>
<path d="M13.9421 62.3164C11.1041 50.9822 9.34912 37.3163 9.34912 37.3163L20.9861 37.1474C20.9861 37.1474 20.8241 55.5638 20.8481 63.278C20.8781 71.3 21.4901 88.9537 21.4901 88.9537H17.9591C17.9591 88.9537 13.4021 72.2315 13.9421 62.3164Z" fill="#263238"/>
<path d="M13.0361 46.6784L11.1941 49.1571C11.7431 52.2515 12.3941 55.6592 13.1531 58.9987C13.4711 53.8668 13.4171 47.9041 13.0361 46.6784Z" fill="black"/>
<path d="M26.2002 90.5254C26.2002 90.5254 21.3372 89.4849 20.9712 88.7849H18.2712L18.2892 91.3807H19.9572L20.2122 91.141L20.6352 91.3807C21.9852 91.3807 25.5732 91.3317 26.4222 91.0566C26.4391 90.9582 26.4275 90.8575 26.3886 90.7644C26.3497 90.6713 26.2848 90.5889 26.2002 90.5254V90.5254Z" fill="#263238"/>
<path d="M3.11813 61.9978C4.46513 50.5981 4.42313 42.982 6.06413 37.3653L16.6601 37.2209C16.6601 37.2209 12.2471 55.3023 10.1981 62.8258C8.14913 70.3493 4.64213 88.9483 4.64213 88.9483H1.37213C1.37213 88.9483 0.343129 70.8124 3.11813 61.9978Z" fill="#263238"/>
<path d="M5.22423 39.5853C4.99023 40.9473 4.15624 49.0046 3.29224 51.9383C10.3572 54.7848 21.1572 53.6653 21.4902 51.8184C21.3912 48.3972 21.1902 39.5853 21.1902 39.5853H5.22423Z" fill="#E0E0E0"/>
<path opacity="0.1" d="M5.61719 41.0807C6.11049 41.8066 6.70657 42.4705 7.39017 43.0556C7.39017 43.0556 5.86619 42.8077 5.61719 41.0807Z" fill="black"/>
<path opacity="0.1" d="M19.8191 42.9793C20.2242 42.4309 20.5527 41.8389 20.7971 41.2169C20.7971 41.2169 20.8661 42.6089 19.8191 42.9793Z" fill="black"/>
<path opacity="0.1" d="M5.68335 42.1077C5.84628 42.6533 6.08734 43.1771 6.40034 43.6657C6.11484 43.5082 5.89166 43.2725 5.76285 42.9926C5.63403 42.7126 5.6062 42.4028 5.68335 42.1077V42.1077Z" fill="black"/>
<path d="M7.68993 90.5254C7.68993 90.5254 4.65693 89.4849 4.30893 88.7849H1.60893L1.55493 91.3807H3.76593L4.02693 91.141L4.44393 91.3807C5.79393 91.3807 7.03893 91.3317 7.89693 91.0566C7.91739 90.9593 7.909 90.8589 7.87262 90.7656C7.83625 90.6722 7.7732 90.5894 7.68993 90.5254V90.5254Z" fill="#263238"/>
<path d="M5.67401 14.6232C9.41801 14.201 14.764 14.2419 18.349 14.803C19.2448 14.9505 20.0668 15.3499 20.6988 15.9448C21.3309 16.5397 21.7409 17.2999 21.871 18.118C22.624 23.0347 21.976 31.626 21.496 40.2745C13.306 42.8186 4.66601 40.239 4.66601 40.239C4.36601 38.4957 5.03801 32.7782 5.48801 29.7274C4.81301 26.5758 3.38801 22.9666 2.43401 18.7799C2.31821 18.3116 2.31199 17.8264 2.41573 17.3557C2.51948 16.8851 2.73089 16.4394 3.03629 16.0476C3.34169 15.6558 3.73427 15.3266 4.18864 15.0812C4.64301 14.8358 5.14904 14.6798 5.67401 14.6232V14.6232Z" fill="#263238"/>
<path opacity="0.1" d="M5.67401 14.6232C9.41801 14.201 14.764 14.2419 18.349 14.803C19.2448 14.9505 20.0668 15.3499 20.6988 15.9448C21.3309 16.5397 21.7409 17.2999 21.871 18.118C22.624 23.0347 21.976 31.626 21.496 40.2745C13.306 42.8186 4.66601 40.239 4.66601 40.239C4.36601 38.4957 5.03801 32.7782 5.48801 29.7274C4.81301 26.5758 3.38801 22.9666 2.43401 18.7799C2.31821 18.3116 2.31199 17.8264 2.41573 17.3557C2.51948 16.8851 2.73089 16.4394 3.03629 16.0476C3.34169 15.6558 3.73427 15.3266 4.18864 15.0812C4.64301 14.8358 5.14904 14.6798 5.67401 14.6232V14.6232Z" fill="white"/>
<path d="M9.37926 8.13208L13.6393 11.3055C13.0873 12.6375 12.9133 14.0294 15.3193 14.5551C15.9193 15.2769 15.0193 16.5436 13.9513 17.0366C11.4253 16.5136 9.97026 15.898 8.98926 14.6749C9.29826 13.7161 9.79026 10.1015 9.37926 8.13208Z" fill="#FF8B7B"/>
<path opacity="0.2" d="M11.1553 9.45593L13.6393 11.3028C13.5046 11.6107 13.4041 11.9301 13.3393 12.2561C12.3763 12.3188 11.0383 11.439 10.9783 10.6381C10.9564 10.2375 11.0164 9.8367 11.1553 9.45593V9.45593Z" fill="black"/>
<path d="M8.76708 5.96932C9.15708 8.39634 9.24708 9.83457 10.7201 10.9732C12.9371 12.6865 16.1531 11.2919 16.5731 8.79403C16.9481 6.55224 16.2491 2.95938 13.5281 2.20758C12.9244 2.04083 12.284 2.01611 11.667 2.13575C11.0499 2.25539 10.4765 2.51546 10.0005 2.89154C9.52449 3.26762 9.16159 3.74738 8.94584 4.28575C8.73009 4.82412 8.66858 5.40344 8.76708 5.96932Z" fill="#FF8B7B"/>
<path d="M8.74308 7.08884C9.0177 7.35909 9.37253 7.55147 9.76482 7.64281C10.1571 7.73416 10.5701 7.72056 10.9541 7.60366C10.3121 7.01257 10.9361 4.84977 10.2941 3.96994C11.5361 4.19331 16.3721 4.83071 16.8341 3.30803C17.3351 1.67368 15.3341 0.368915 14.2121 0.246338C14.5421 0.927319 14.5121 1.42035 13.2821 1.19971C12.0521 0.979074 6.98208 -0.0832574 7.54308 2.07409C5.91108 2.07409 5.80008 4.23144 6.99408 5.26381C7.64814 5.81285 8.23458 6.42479 8.74308 7.08884V7.08884Z" fill="#263238"/>
<path d="M7.84305 1.97059C6.86506 1.74995 7.17105 0.932769 7.39005 0.848328C6.47505 1.0499 6.14206 1.86708 7.24606 2.24298C8.35006 2.61888 7.84305 1.97059 7.84305 1.97059Z" fill="#263238"/>
<path d="M8.01419 7.45927C8.1052 7.7252 8.25333 7.97213 8.45003 8.18579C8.64673 8.39945 8.8881 8.57561 9.16019 8.70411C9.89519 9.0446 10.4292 8.48347 10.3602 7.78069C10.3032 7.14602 9.85618 6.20626 9.05219 6.14634C8.87533 6.13833 8.69909 6.17071 8.53959 6.24052C8.38008 6.31034 8.2424 6.41535 8.13914 6.54596C8.03588 6.67657 7.97033 6.82861 7.94851 6.98816C7.92668 7.14771 7.94927 7.30969 8.01419 7.45927V7.45927Z" fill="#FF8B7B"/>
<path d="M12.5202 6.05645C12.5382 6.2553 12.6702 6.40784 12.8202 6.39694C12.9702 6.38605 13.0663 6.21172 13.0482 6.01559C13.0302 5.81947 12.8982 5.66421 12.7482 5.6751C12.5982 5.686 12.5022 5.8576 12.5202 6.05645Z" fill="#263238"/>
<path d="M15.1363 5.99928C15.1543 6.19813 15.2863 6.35067 15.4363 6.33705C15.5863 6.32343 15.6793 6.15454 15.6613 5.9557C15.6433 5.75685 15.5113 5.60703 15.3613 5.61793C15.2113 5.62882 15.1183 5.80043 15.1363 5.99928Z" fill="#263238"/>
<path d="M14.605 6.26624C14.9206 6.85172 15.3245 7.39446 15.805 7.8788C15.448 8.23836 14.776 8.15119 14.776 8.15119L14.605 6.26624Z" fill="#FF5652"/>
<path d="M12.1152 5.42456C12.0946 5.42979 12.0728 5.42979 12.0522 5.42456C12.0362 5.41917 12.0215 5.41088 12.0091 5.40018C11.9968 5.38948 11.9869 5.37661 11.9802 5.36234C11.9734 5.34806 11.97 5.3327 11.97 5.31717C11.97 5.30164 11.9735 5.28628 11.9802 5.27202C12.0522 5.09713 12.1689 4.94026 12.3206 4.81429C12.4724 4.68833 12.655 4.59688 12.8532 4.54746C12.8871 4.54132 12.9222 4.54763 12.9509 4.56499C12.9796 4.58236 12.9995 4.60937 13.0062 4.64007C13.013 4.67078 13.0061 4.70266 12.9869 4.72871C12.9678 4.75477 12.9381 4.77285 12.9042 4.77899V4.77899C12.7473 4.81933 12.6031 4.89298 12.4837 4.99386C12.3642 5.09474 12.2729 5.21996 12.2172 5.35919C12.2077 5.37703 12.1934 5.39239 12.1755 5.40383C12.1577 5.41526 12.1369 5.4224 12.1152 5.42456V5.42456Z" fill="#263238"/>
<path d="M16.6544 5.10855C16.6327 5.10865 16.6114 5.1037 16.5925 5.09415C16.5736 5.08461 16.5577 5.07081 16.5464 5.05407C16.4665 4.92674 16.3544 4.81854 16.2192 4.73848C16.0841 4.65841 15.9299 4.60879 15.7694 4.59373C15.7524 4.59337 15.7357 4.58999 15.7202 4.58378C15.7047 4.57756 15.6907 4.56863 15.679 4.5575C15.6673 4.54637 15.6581 4.53326 15.652 4.51891C15.6459 4.50456 15.6429 4.48926 15.6433 4.47388C15.6449 4.44257 15.6599 4.41306 15.6851 4.39167C15.7104 4.37029 15.7438 4.35873 15.7784 4.35947C15.9816 4.3763 16.1775 4.437 16.3497 4.5365C16.5219 4.636 16.6655 4.77143 16.7684 4.93149C16.7854 4.95806 16.7905 4.98956 16.7827 5.01947C16.7749 5.04938 16.7547 5.07542 16.7264 5.0922C16.7052 5.1052 16.6797 5.11099 16.6544 5.10855V5.10855Z" fill="#263238"/>
<path d="M8.98926 14.675C8.98926 14.675 13.3603 20.7057 15.0223 24.9605C16.6603 19.9676 16.8493 15.9716 15.3223 14.5551C14.8303 15.119 12.8503 15.8817 8.98926 14.675Z" fill="#E0E0E0"/>
<path d="M7.49816 19.1313L7.07516 20.2209L6.65516 21.354C6.37616 22.1085 6.12116 22.8658 5.88416 23.6094C5.76416 23.9826 5.65916 24.3531 5.56316 24.7181C5.46716 25.0831 5.37415 25.4454 5.30815 25.7913C5.24215 26.1372 5.19115 26.4723 5.15815 26.7719C5.14105 27.0014 5.14105 27.2316 5.15815 27.4611L5.00216 27.0634C4.87616 26.8482 4.74716 26.791 4.74116 26.791C4.73516 26.791 4.78316 26.8455 4.87616 26.9054C5.15542 27.0549 5.45227 27.1755 5.76116 27.2649C6.55896 27.5083 7.37377 27.7031 8.20016 27.8479C9.07916 28.0059 9.98516 28.1203 10.9002 28.2565C11.8152 28.3926 12.7572 28.488 13.6632 28.6051H13.7052C14.0215 28.6462 14.3117 28.7877 14.5242 29.0045C14.7366 29.2213 14.8577 29.4993 14.866 29.7894C14.8743 30.0795 14.7692 30.3629 14.5693 30.5894C14.3695 30.8159 14.0878 30.9708 13.7742 31.0267C12.7966 31.1952 11.8104 31.3188 10.8192 31.3971C9.82916 31.4789 8.83016 31.5197 7.81916 31.5143C6.75314 31.5125 5.68924 31.4278 4.63916 31.2609C4.0226 31.1565 3.41945 30.9949 2.83916 30.7788C2.45255 30.6341 2.08765 30.4456 1.75316 30.2177C1.26019 29.887 0.859472 29.456 0.583159 28.9592C0.532189 28.8667 0.491003 28.7701 0.460157 28.6705L0.427157 28.5588C0.251965 27.9658 0.156273 27.3558 0.142158 26.7419C0.127606 26.2301 0.14865 25.7179 0.20516 25.2084C0.301078 24.2777 0.466457 23.354 0.700158 22.4436C0.913158 21.5556 1.18316 20.6976 1.47416 19.8504C1.62416 19.4282 1.77416 19.0087 1.94216 18.592C2.11016 18.1752 2.27816 17.7748 2.48516 17.3253C2.75589 16.7382 3.26752 16.2697 3.91185 16.0189C4.55617 15.7681 5.28266 15.7547 5.93769 15.9814C6.59272 16.2082 7.12491 16.6575 7.42173 17.2341C7.71855 17.8108 7.75672 18.4696 7.52816 19.0714L7.49816 19.1313Z" fill="#E0E0E0"/>
<path d="M14.089 28.9565L16.741 29.2562L15.277 32.3369C15.277 32.3369 12.856 31.7921 12.682 30.5827C12.6648 30.449 12.6998 30.314 12.781 30.2014L13.465 29.2235C13.5308 29.1302 13.6242 29.0556 13.7346 29.0084C13.845 28.9611 13.9679 28.9432 14.089 28.9565V28.9565Z" fill="#FF8B7B"/>
<path d="M18.7301 31.5361L18.0161 32.5385C17.8776 32.7312 17.6684 32.873 17.4257 32.9388C17.1829 33.0047 16.9223 32.9902 16.6901 32.898L15.2771 32.3369L16.7411 29.2562L18.3941 30.185C18.515 30.2528 18.6197 30.3418 18.7022 30.4468C18.7848 30.5518 18.8434 30.6707 18.8747 30.7965C18.906 30.9223 18.9093 31.0525 18.8845 31.1795C18.8596 31.3065 18.8072 31.4277 18.7301 31.5361V31.5361Z" fill="#FF8B7B"/>
<path d="M9.20217 13.738C8.64481 13.8183 8.13397 14.068 7.75317 14.4462C8.94106 15.8856 10.6344 16.9138 12.5532 17.3608C12.4152 16.944 12.8292 15.7264 13.2852 15.2906C11.6082 15.0645 9.20217 13.738 9.20217 13.738Z" fill="#FAFAFA"/>
<path d="M13.81 13.8878C14.3788 13.9816 14.9195 14.183 15.397 14.4788C15.397 14.4788 17.077 16.1813 15.097 17.1428C15.232 16.7261 14.197 15.6147 13.27 15.2906C14.944 15.0645 13.81 13.8878 13.81 13.8878Z" fill="#FAFAFA"/>
<path d="M13.4562 16.2603C12.1302 15.6147 10.4892 14.9147 10.9452 16.0451C11.4012 17.1755 10.7982 17.5678 11.3922 17.9518C11.9862 18.3359 13.1922 17.2818 13.5912 17.1347C13.9903 16.9876 13.4562 16.2603 13.4562 16.2603Z" fill="#FF4040"/>
<path d="M14.3951 16.2521C15.4061 15.6338 16.6721 14.9637 16.4471 16.0669C16.2221 17.1701 16.7801 17.5542 16.3391 17.9273C15.8981 18.3005 14.7641 17.2573 14.4041 17.1102C14.0441 16.9631 14.3951 16.2521 14.3951 16.2521Z" fill="#FF4040"/>
<path d="M13.2761 16.1732C13.5761 16.0097 14.3081 15.8027 14.6711 16.2467C15.0341 16.6907 14.9171 17.4343 14.4161 17.5242C14.2372 17.5571 14.0517 17.5453 13.8795 17.4901C13.7073 17.435 13.5548 17.3385 13.4381 17.211C13.5494 17.0482 13.5941 16.8551 13.5645 16.6654C13.5349 16.4757 13.4328 16.3015 13.2761 16.1732V16.1732Z" fill="#FF4040"/>
<path d="M4.82511 89.0354L1.18614 89.1281L0.994141 87.2567L5.22111 87.4855L4.82511 89.0354Z" fill="black"/>
<path d="M21.6192 89.03L17.6892 89.1281L17.2542 87.5073L21.6432 87.1205L21.6192 89.03Z" fill="black"/>
<path d="M13.0541 28.3219C11.2164 27.8286 9.32157 27.5315 7.40808 27.4366C7.00008 27.4584 6.84408 35.829 6.87708 39.253C6.87708 39.716 12.7451 39.6234 14.2451 39.4137C14.3291 38.4576 14.3471 31.4789 14.7371 29.297C14.7668 29.1263 14.7328 28.9515 14.6403 28.8004C14.5479 28.6494 14.4024 28.5307 14.2271 28.4635C13.8554 28.3275 13.452 28.2787 13.0541 28.3219V28.3219Z" fill="white"/>
<path d="M43.7712 14.9229H27.1152V15.3532H43.7712V14.9229Z" fill="#FF4040"/>
<path d="M43.4231 15.3532H27.4631L28.0751 15.6556H42.8141L43.4231 15.3532Z" fill="#FF4040"/>
<path opacity="0.2" d="M43.4231 15.3532H27.4631L28.0751 15.6556H42.8141L43.4231 15.3532Z" fill="black"/>
<path d="M36.1301 8.84305C36.1307 8.96653 36.0909 9.0874 36.0158 9.19034C35.9407 9.29328 35.8336 9.37365 35.7081 9.42128C35.5826 9.46891 35.4444 9.48165 35.3109 9.45789C35.1775 9.43413 35.0548 9.37494 34.9584 9.28781C34.862 9.20069 34.7963 9.08954 34.7695 8.96847C34.7428 8.84739 34.7562 8.72183 34.8081 8.60769C34.86 8.49356 34.9481 8.39597 35.0611 8.32731C35.1742 8.25865 35.3071 8.22199 35.4431 8.22199C35.5332 8.22163 35.6224 8.23743 35.7058 8.26848C35.7891 8.29953 35.8649 8.34522 35.9287 8.40293C35.9925 8.46063 36.0432 8.52922 36.0777 8.60475C36.1123 8.68028 36.1301 8.76126 36.1301 8.84305Z" fill="#FF4040"/>
<path d="M42.6432 12.9262C42.1806 11.6256 41.3011 10.4799 40.1172 9.63572L40.3032 9.42053C41.5351 10.2988 42.4502 11.4911 42.9312 12.8445L42.6432 12.9262Z" fill="#FF4040"/>
<path d="M39.0763 9.00922C38.7401 8.84066 38.39 8.69586 38.0293 8.57612L38.1313 8.32007C38.5066 8.44825 38.8707 8.60214 39.2203 8.78041L39.0763 9.00922Z" fill="#FF4040"/>
<path d="M35.4431 8.84308C33.6362 8.84308 31.9033 9.49482 30.6256 10.6549C29.3479 11.815 28.6301 13.3885 28.6301 15.0291H42.2561C42.2561 13.3885 41.5383 11.815 40.2606 10.6549C38.983 9.49482 37.25 8.84308 35.4431 8.84308V8.84308Z" fill="#FF4040"/>
<path opacity="0.3" d="M29.569 14.4761H31.33C31.3909 14.4752 31.4495 14.4551 31.496 14.4194C31.5425 14.3836 31.5739 14.3344 31.585 14.28C31.939 12.5857 33.052 11.1094 34.822 9.82639C34.8621 9.79709 34.8907 9.75672 34.9033 9.71138C34.9159 9.66604 34.9119 9.6182 34.8919 9.5751C34.8719 9.53201 34.837 9.496 34.7924 9.47253C34.7479 9.44907 34.6961 9.43942 34.645 9.44505C33.3064 9.60547 32.0617 10.1571 31.0988 11.0166C30.136 11.876 29.5074 12.9967 29.308 14.2092C29.3033 14.2427 29.3065 14.2768 29.3175 14.3091C29.3285 14.3414 29.347 14.3712 29.3717 14.3965C29.3964 14.4218 29.4268 14.442 29.4609 14.4557C29.4949 14.4694 29.5318 14.4764 29.569 14.4761Z" fill="white"/>
<path d="M13.768 8.85936C13.9084 8.86493 14.049 8.85854 14.188 8.8403C14.2067 8.837 14.2231 8.82712 14.2338 8.81283C14.2445 8.79854 14.2485 8.781 14.245 8.76403C14.2401 8.74627 14.2283 8.73072 14.2117 8.72021C14.1952 8.70971 14.1751 8.70496 14.155 8.70682C13.8416 8.74912 13.5218 8.7265 13.2194 8.64065C12.9171 8.55479 12.64 8.40793 12.409 8.21107C12.4023 8.20455 12.3941 8.19936 12.3851 8.19581C12.3761 8.19226 12.3664 8.19043 12.3565 8.19043C12.3467 8.19043 12.3369 8.19226 12.3279 8.19581C12.3189 8.19936 12.3107 8.20455 12.304 8.21107C12.2909 8.22411 12.2837 8.2411 12.2837 8.25873C12.2837 8.27637 12.2909 8.29336 12.304 8.3064C12.7009 8.64742 13.2219 8.8442 13.768 8.85936V8.85936Z" fill="#263238"/>
</svg>
