<svg width="40" height="40" viewBox="0 0 40 40" fill="none" xmlns="http://www.w3.org/2000/svg">
<path d="M18.3333 28.3333H21.6666V21.6667H28.3333V18.3333H21.6666V11.6667H18.3333V18.3333H11.6666V21.6667H18.3333V28.3333ZM19.9999 36.6667C17.6944 36.6667 15.5277 36.2289 13.4999 35.3533C11.4721 34.4778 9.70825 33.2906 8.20825 31.7917C6.70825 30.2917 5.52103 28.5278 4.64659 26.5C3.77214 24.4722 3.33436 22.3056 3.33325 20C3.33325 17.6944 3.77103 15.5278 4.64659 13.5C5.52214 11.4722 6.70936 9.70833 8.20825 8.20833C9.70825 6.70833 11.4721 5.52111 13.4999 4.64667C15.5277 3.77222 17.6944 3.33445 19.9999 3.33333C22.3055 3.33333 24.4721 3.77111 26.4999 4.64667C28.5277 5.52222 30.2916 6.70945 31.7916 8.20833C33.2916 9.70833 34.4794 11.4722 35.3549 13.5C36.2305 15.5278 36.6677 17.6944 36.6666 20C36.6666 22.3056 36.2288 24.4722 35.3533 26.5C34.4777 28.5278 33.2905 30.2917 31.7916 31.7917C30.2916 33.2917 28.5277 34.4794 26.4999 35.355C24.4721 36.2306 22.3055 36.6678 19.9999 36.6667ZM19.9999 33.3333C23.7221 33.3333 26.8749 32.0417 29.4583 29.4583C32.0416 26.875 33.3333 23.7222 33.3333 20C33.3333 16.2778 32.0416 13.125 29.4583 10.5417C26.8749 7.95833 23.7221 6.66667 19.9999 6.66667C16.2777 6.66667 13.1249 7.95833 10.5416 10.5417C7.95825 13.125 6.66659 16.2778 6.66659 20C6.66659 23.7222 7.95825 26.875 10.5416 29.4583C13.1249 32.0417 16.2777 33.3333 19.9999 33.3333Z" fill="black"/>
</svg>
