<svg width="40" height="40" viewBox="0 0 40 40" fill="none" xmlns="http://www.w3.org/2000/svg">
<path d="M18.3334 28.3333H21.6667V21.6667H28.3334V18.3333H21.6667V11.6667H18.3334V18.3333H11.6667V21.6667H18.3334V28.3333ZM20 36.6667C17.6945 36.6667 15.5278 36.2289 13.5 35.3533C11.4723 34.4778 9.70837 33.2906 8.20837 31.7917C6.70837 30.2917 5.52115 28.5278 4.64671 26.5C3.77226 24.4722 3.33449 22.3056 3.33337 20C3.33337 17.6944 3.77115 15.5278 4.64671 13.5C5.52226 11.4722 6.70949 9.70833 8.20837 8.20833C9.70837 6.70833 11.4723 5.52111 13.5 4.64667C15.5278 3.77222 17.6945 3.33445 20 3.33333C22.3056 3.33333 24.4723 3.77111 26.5 4.64667C28.5278 5.52222 30.2917 6.70945 31.7917 8.20833C33.2917 9.70833 34.4795 11.4722 35.355 13.5C36.2306 15.5278 36.6678 17.6944 36.6667 20C36.6667 22.3056 36.2289 24.4722 35.3534 26.5C34.4778 28.5278 33.2906 30.2917 31.7917 31.7917C30.2917 33.2917 28.5278 34.4794 26.5 35.355C24.4723 36.2306 22.3056 36.6678 20 36.6667ZM20 33.3333C23.7223 33.3333 26.875 32.0417 29.4584 29.4583C32.0417 26.875 33.3334 23.7222 33.3334 20C33.3334 16.2778 32.0417 13.125 29.4584 10.5417C26.875 7.95833 23.7223 6.66667 20 6.66667C16.2778 6.66667 13.125 7.95833 10.5417 10.5417C7.95837 13.125 6.66671 16.2778 6.66671 20C6.66671 23.7222 7.95837 26.875 10.5417 29.4583C13.125 32.0417 16.2778 33.3333 20 33.3333Z" fill="black"/>
</svg>
