<svg width="40" height="27" viewBox="0 0 40 27" fill="none" xmlns="http://www.w3.org/2000/svg">
<path d="M35 20.25H40V22.5H35V25.875H31.6666V22.5H26.6666V20.25H31.6666V16.875H35V20.25ZM31.6666 9V6.75H4.99996V9H31.6666ZM31.6666 13.5H4.99996V20.25H23.3333V22.5H4.99996C4.1159 22.5 3.26806 22.2629 2.64294 21.841C2.01782 21.419 1.66663 20.8467 1.66663 20.25V6.75C1.66663 5.50125 3.14996 4.5 4.99996 4.5H31.6666C32.5507 4.5 33.3985 4.73705 34.0236 5.15901C34.6488 5.58097 35 6.15326 35 6.75V14.625H31.6666V13.5Z" fill="black"/>
</svg>
