<svg width="172" height="155" viewBox="0 0 172 155" fill="none" xmlns="http://www.w3.org/2000/svg">
<path d="M86.0001 132.544C49.1637 132.544 19.3019 130.972 19.3019 129.034C19.3019 127.096 49.1637 125.525 86.0001 125.525C122.836 125.525 152.698 127.096 152.698 129.034C152.698 130.972 122.836 132.544 86.0001 132.544Z" fill="#F5F5F5"/>
<path d="M123.933 129.034H125.309" stroke="#FF3E3E" stroke-linecap="round" stroke-linejoin="round"/>
<path d="M127.909 129.034H163.049" stroke="#FF3E3E" stroke-linecap="round" stroke-linejoin="round" stroke-dasharray="7.57 7.57"/>
<path d="M164.349 129.034H165.725" stroke="#FF3E3E" stroke-linecap="round" stroke-linejoin="round"/>
<path d="M42.0517 54.83L81.7439 55.4231L81.2687 81.2456L41.5766 80.6525L42.0517 54.83Z" fill="#FF3E3E"/>
<path opacity="0.3" d="M57.7854 55.0619L81.783 55.4205L81.3078 81.2431L57.3102 80.8845L57.7854 55.0619Z" fill="white"/>
<path opacity="0.3" d="M54.1694 56.8019L61.0803 56.9265L61.0418 58.6625L54.1308 58.5379L54.1694 56.8019Z" fill="white"/>
<path opacity="0.3" d="M53.964 76.8819L60.874 76.9852L60.8421 78.7209L53.9321 78.6177L53.964 76.8819Z" fill="white"/>
<path d="M49.3571 71.3589C47.1171 71.3589 45.3013 69.5074 45.3013 67.2235C45.3013 64.9396 47.1171 63.0881 49.3571 63.0881C51.597 63.0881 53.4128 64.9396 53.4128 67.2235C53.4128 69.5074 51.597 71.3589 49.3571 71.3589Z" stroke="white" stroke-miterlimit="10"/>
<path d="M49.1885 63.7174V64.4118" stroke="white" stroke-linecap="round" stroke-linejoin="round"/>
<path d="M49.0132 70.0786V70.773" stroke="white" stroke-linecap="round" stroke-linejoin="round"/>
<path d="M52.7764 67.0871H52.0023" stroke="white" stroke-linecap="round" stroke-linejoin="round"/>
<path d="M46.5637 67.0902H45.7897" stroke="white" stroke-linecap="round" stroke-linejoin="round"/>
<path d="M49.1919 67.0871L49.1887 64.9481" stroke="white" stroke-width="0.5" stroke-linecap="round" stroke-linejoin="round"/>
<path d="M49.0405 67.2266L47.3618 68.7394" stroke="white" stroke-width="0.5" stroke-linecap="round" stroke-linejoin="round"/>
<path d="M48.817 67.0902C48.817 67.157 48.839 67.2224 48.8802 67.2779C48.9214 67.3335 48.98 67.3768 49.0485 67.4024C49.117 67.428 49.1924 67.4347 49.2651 67.4216C49.3378 67.4086 49.4046 67.3764 49.4571 67.3291C49.5095 67.2819 49.5452 67.2217 49.5597 67.1561C49.5742 67.0906 49.5667 67.0226 49.5383 66.9609C49.51 66.8992 49.4619 66.8464 49.4003 66.8093C49.3386 66.7721 49.2661 66.7523 49.192 66.7523C49.1426 66.7519 49.0936 66.7603 49.0479 66.7772C49.0022 66.794 48.9607 66.8189 48.9258 66.8503C48.8909 66.8818 48.8633 66.9192 48.8446 66.9604C48.8259 67.0016 48.8165 67.0457 48.817 67.0902V67.0902Z" fill="white"/>
<path opacity="0.3" d="M49.357 72.4532C46.3913 72.4532 43.9871 70.1118 43.9871 67.2235C43.9871 64.3352 46.3913 61.9938 49.357 61.9938C52.3227 61.9938 54.7268 64.3352 54.7268 67.2235C54.7268 70.1118 52.3227 72.4532 49.357 72.4532Z" fill="white"/>
<path d="M93.9531 112.576C93.3546 112.989 81.3386 111.823 84.445 92.6125C84.445 92.6125 78.7449 93.9176 78.1326 93.8308C78.1326 93.8308 69.7699 105.384 75.8587 111.107C81.9475 116.83 91.0222 117.18 91.0222 117.18L93.9531 112.576Z" fill="#FF3E3E"/>
<path opacity="0.3" d="M93.9531 112.576C93.3546 112.989 81.3386 111.823 84.445 92.6125C84.445 92.6125 78.7449 93.9176 78.1326 93.8308C78.1326 93.8308 69.7699 105.384 75.8587 111.107C81.9475 116.83 91.0222 117.18 91.0222 117.18L93.9531 112.576Z" fill="black"/>
<path d="M80.637 95.5854C80.6061 95.5854 83.9945 95.6443 85.1297 94.3733C86.2649 93.1023 87.032 90.83 84.968 89.28C82.904 87.73 70.7849 81.034 65.0779 80.507C59.3709 79.98 53.2615 83.297 53.2615 83.297L60.7332 88.2756L76.8221 91.7848L80.637 95.5854Z" fill="#263238"/>
<path d="M91.5935 109.551L91.2805 112.329L87.579 112.046L88.1363 109.191L91.5935 109.551Z" fill="#FFC3BD"/>
<path d="M92.3122 112.127L86.9424 112.059L86.5605 114.502C86.5605 114.502 91.5898 114.564 93.6572 114.316C95.7247 114.068 95.4013 113.097 95.4013 113.097C95.4013 113.097 92.9796 113.15 92.3122 112.127Z" fill="#263238"/>
<path d="M45.4501 119.158C44.6483 112.057 49.4055 105.804 56.0757 105.193C62.7459 104.581 68.8031 109.842 69.6049 116.943C70.4067 124.044 65.6494 130.296 58.9792 130.908C52.3091 131.52 46.2519 126.259 45.4501 119.158Z" fill="#263238"/>
<path d="M65.9653 78.5199C65.9653 78.5199 65.408 90.0426 72.8453 90.3712C80.2826 90.6998 88.2737 89.9651 88.2737 89.9651L85.931 110.67L92.9039 111.057C92.9039 111.057 97.9091 93.4929 98.6969 89.0785C99.4846 84.6641 98.8001 81.5424 93.6298 79.5832C88.4594 77.624 65.9653 78.5199 65.9653 78.5199Z" fill="#FF3E3E"/>
<path d="M107.586 115.078L98.3219 90.83L85.9379 78.5106C85.9379 78.5106 96.7464 78.5478 101.941 81.2386C107.135 83.9294 107.328 87.1627 108.281 91.0098C109.234 94.8569 113.055 113.066 113.055 113.066L107.586 115.078Z" fill="#FF3E3E"/>
<path opacity="0.7" d="M65.9653 78.5199C65.9653 78.5199 77.4755 78.058 85.9173 78.5199C85.9173 78.5199 96.7257 78.5571 101.92 81.2479C107.115 83.9387 107.328 87.1627 108.281 91.0098C109.234 94.8569 113.055 113.066 113.055 113.066L107.586 115.078L98.3219 90.83C96.7636 97.5508 92.9039 111.045 92.9039 111.045L85.931 110.67L88.2771 89.9775C88.2771 89.9775 80.2894 90.7122 72.8487 90.3836C65.408 90.055 65.9653 78.5199 65.9653 78.5199Z" fill="black"/>
<path d="M84.9679 59.83L89.2438 60.2981C89.2438 60.2981 89.9869 67.3816 90.6783 68.758C90.6783 68.758 103.829 70.3855 109.216 70.246L111.951 71.92L112.048 74.8309L109.368 74.9022L108.504 73.0577C108.504 73.0577 106.695 72.9864 106.275 72.0688C106.275 72.0688 92.302 75.1099 87.1558 71.6379C87.1489 71.641 84.046 67.5335 84.9679 59.83Z" fill="#FFC3BD"/>
<path d="M72.7147 40.8611C72.7147 40.8611 71.3766 42.4111 71.8857 43.7534C72.0262 44.1362 72.2738 44.4799 72.6046 44.7514C72.9354 45.0229 73.3382 45.213 73.7742 45.3034C73.7742 45.3034 74.0254 47.4517 75.4323 47.5137C76.8393 47.5757 76.368 42.78 76.368 42.78L72.7147 40.8611Z" fill="#263238"/>
<path d="M83.5472 78.5726L84.4864 64.7249L90.3137 61.2343C90.3137 61.2343 88.408 55.18 84.7616 54.1539C81.1152 53.1278 73.1619 50.7749 68.339 51.9436C63.5161 53.1123 64.07 58.2397 64.899 62.0434L65.8278 62.2418C65.8278 62.2418 65.9723 77.2303 65.9792 78.5199L83.5472 78.5726Z" fill="#263238"/>
<path d="M73.062 52.7992C74.9712 54.4639 78.8652 55.4559 79.942 54.6282C81.0187 53.8005 79.6599 53.041 78.6485 52.1048C78.1016 51.5902 78.1188 50.6261 78.246 49.8573C78.3131 49.4699 78.412 49.0876 78.5419 48.7134C82.116 48.5367 83.5987 47.0301 83.7466 44.3734C83.8945 41.7167 82.5598 38.6322 82.5598 38.6322L80.0348 36.6916C80.0348 36.6916 76.5948 37.1566 73.8428 38.8616C72.2054 39.866 72.6904 41.8438 73.3681 43.3039C73.6552 43.9254 74.0005 44.5238 74.4001 45.0926C74.7854 48.7289 73.062 52.7992 73.062 52.7992Z" fill="#FFC3BD"/>
<path d="M81.7583 45.105C81.7583 45.105 80.3823 45.1639 79.7803 44.3951" stroke="#263238" stroke-linecap="round" stroke-linejoin="round"/>
<path d="M79.5671 41.9678C79.5671 42.2034 79.7253 42.3894 79.9111 42.3863C80.0968 42.3832 80.231 42.1879 80.2241 41.9523C80.2172 41.7167 80.0659 41.5307 79.8801 41.5338C79.6943 41.5369 79.5567 41.7322 79.5671 41.9678Z" fill="#263238"/>
<path d="M82.7043 42.0422C82.7043 42.2778 82.8625 42.4638 83.0483 42.4607C83.234 42.4576 83.3682 42.2623 83.3613 42.0267C83.3544 41.7911 83.2031 41.6051 83.0173 41.6082C82.8315 41.6113 82.694 41.8097 82.7043 42.0422Z" fill="#263238"/>
<path d="M81.614 43.9673L81.755 42.067L82.7629 43.8712C82.6056 43.9917 82.4109 44.0656 82.2053 44.0828C81.9997 44.1 81.7932 44.0597 81.614 43.9673Z" fill="#ED847E"/>
<path d="M79.7322 40.4798C79.4683 40.4145 79.1873 40.4356 78.9391 40.5395C78.6909 40.6434 78.4917 40.8232 78.3768 41.0471" stroke="#263238" stroke-linecap="round" stroke-linejoin="round"/>
<path d="M83.6746 40.8301C83.6746 40.8301 83.0416 40.2101 82.2986 40.3682" stroke="#263238" stroke-linecap="round" stroke-linejoin="round"/>
<path d="M73.3441 43.3039C77.2795 43.431 77.768 39.4103 77.768 39.4103C79.715 40.3403 82.5461 38.6353 82.5461 38.6353L80.0212 36.6885C80.0212 36.6885 76.5812 37.1597 73.8292 38.8585C72.1814 39.866 72.6665 41.85 73.3441 43.3039Z" fill="#263238"/>
<path d="M83.8121 39.8133C83.8121 39.8133 85.8486 38.5919 84.9508 37.7115C84.0529 36.8311 78.5524 38.5051 74.4416 40.5573C74.4416 40.5573 83.8568 34.8812 86.4162 36.6761C88.5318 38.161 83.8396 40.2225 83.9807 40.2194L83.8121 39.8133Z" fill="#FF3E3E"/>
<path d="M72.3259 39.3979C72.3317 40.0407 72.4669 40.6772 72.725 41.2765L81.9717 37.2465C81.5886 36.8479 81.1296 36.514 80.6163 36.2607C80.0691 35.9786 79.474 35.7796 78.855 35.6717C78.1986 35.5586 77.5268 35.5377 76.8633 35.6097C73.4818 35.96 72.3087 38.3036 72.3259 39.3979Z" fill="#FF3E3E"/>
<path d="M113.276 80.4357C113.276 80.4357 123.72 93.4557 115.12 113.497" stroke="#263238" stroke-linecap="round" stroke-linejoin="round"/>
<path d="M99.4917 87.1999C99.4917 87.1999 99.4917 87.2247 99.4917 87.2743C99.4917 87.3239 99.4917 87.3518 99.4917 87.4076V87.4386C99.6159 88.6925 99.8459 89.9361 100.18 91.1586C100.654 92.9659 101.284 94.6864 101.803 96.069C104.005 101.944 103.75 108.274 103.75 108.274C104.48 107.455 105.814 106.873 107.483 106.463C113.558 104.96 123.871 105.766 123.871 105.766C125.894 99.3705 125.171 89.3606 123.159 83.7558C121.147 78.151 115.567 79.4158 115.567 79.4158C115.567 79.4158 109.678 79.5708 108.938 79.4995C107.584 79.3515 106.214 79.3766 104.868 79.5739C100.321 80.3241 99.2268 83.5636 99.4917 87.1999Z" fill="#FF3E3E"/>
<path d="M54.1489 111.6C64.4689 119.995 84.3899 120.875 99.2129 119.945L107.517 106.482L110.881 101.029L100.073 87.9005L99.5018 87.2092C99.5018 87.2092 99.5018 87.234 99.5018 87.2836C99.5018 87.3332 99.5018 87.3611 99.5018 87.4169V87.4479C99.6497 89.7884 100.606 108.571 92.9658 113.178L92.9039 113.218C91.8701 113.82 90.6705 114.151 89.4398 114.173C75.4218 114.539 75.814 98.053 79.3778 94.5221L55.0536 90.117C55.0536 90.117 50.2513 101.013 54.1489 111.6Z" fill="#FF3E3E"/>
<path d="M81.2047 90.9478C81.2047 90.9478 83.4854 92.6528 82.3089 94.9406C81.1324 97.2284 69.7907 92.7861 65.3256 91.977C60.8605 91.1679 55.6936 90.3774 53.4714 89.9651C51.2491 89.5528 51.4418 83.8085 53.2581 83.3001C55.0744 82.7917 72.8661 85.6251 75.8176 87.1813C77.7666 88.2479 79.5739 89.5116 81.2047 90.9478V90.9478Z" fill="#263238"/>
<path d="M75.4941 44.7237C75.7112 44.5131 75.8426 44.2424 75.867 43.9558C75.8913 43.6693 75.8072 43.3837 75.6283 43.1458C75.0779 42.4018 73.9668 41.2207 72.9004 42.1042C71.4074 43.3442 73.9564 45.5979 75.0125 45.0523C75.1894 44.9637 75.3516 44.8531 75.4941 44.7237V44.7237Z" fill="#FFC3BD"/>
<path opacity="0.2" d="M83.8119 39.8133C83.8119 39.8133 85.8484 38.5919 84.9506 37.7115C84.5515 37.3209 83.3579 37.4015 81.7445 37.8169C80.707 38.0686 79.6908 38.3866 78.7035 38.7686C77.2863 39.3235 75.7795 40.0334 74.4414 40.5573C74.4414 40.5573 83.8567 34.8812 86.416 36.6761C88.5316 38.161 84.1319 40.0861 83.9771 40.2163L83.9014 39.9652L83.8119 39.8133Z" fill="black"/>
<path d="M82.8454 39.2832C82.8454 39.2832 84.9094 39.5932 83.4852 41.5958L82.8454 39.2832Z" fill="#263238"/>
<path d="M80.8674 38.0618C80.8674 38.0618 83.9806 37.076 84.8475 37.634C85.7143 38.192 84.8062 39.2553 83.8155 39.804L83.0208 39.897L82.553 38.626L81.3421 38.4927L80.8674 38.0618Z" fill="#263238"/>
<path opacity="0.3" d="M76.6258 36.5459L77.3723 37.541L80.6162 36.27C80.069 35.9879 79.4739 35.7889 78.8549 35.681L76.6258 36.5459Z" fill="white"/>
<path opacity="0.1" d="M77.3482 48.4406C77.5629 48.9551 77.8709 49.4339 78.2598 49.8573C78.3269 49.4699 78.4257 49.0876 78.5557 48.7134C78.1385 48.6871 77.7298 48.5948 77.3482 48.4406Z" fill="black"/>
<path d="M108.188 75.702C108.326 77.8503 109.358 79.608 110.624 80.042C110.843 80.118 111.077 80.1508 111.312 80.1381C112.873 80.0575 114.009 77.9464 113.85 75.4261C113.692 72.9058 112.295 70.928 110.734 71.0086C110.097 71.0396 109.537 71.4085 109.1 72.0006C108.456 72.85 108.095 74.2078 108.188 75.702Z" fill="#F5F5F5"/>
<path d="M108.188 75.702C108.326 77.8503 109.358 79.608 110.623 80.042C112.068 79.9676 113.117 78.0177 112.969 75.702C112.822 73.3863 111.535 71.548 110.09 71.6224C109.718 71.6474 109.366 71.7838 109.089 72.0099V72.0099C108.456 72.85 108.095 74.2078 108.188 75.702Z" fill="white"/>
<path d="M52.4358 106.153C55.0949 104.47 65.384 102.818 65.384 102.818C71.6345 102.818 77.1213 107.886 77.8781 114.616C78.4973 120.091 75.8141 125.06 71.49 127.326C71.49 127.326 71.1288 127.463 70.5233 127.677C68.2323 128.492 62.4187 130.467 58.9821 130.901" fill="#263238"/>
<path opacity="0.3" d="M45.4501 119.158C44.6483 112.057 49.4055 105.804 56.0757 105.193C62.7459 104.581 68.8031 109.842 69.6049 116.943C70.4067 124.044 65.6494 130.296 58.9792 130.908C52.3091 131.52 46.2519 126.259 45.4501 119.158Z" fill="black"/>
<path d="M98.9281 118.745C98.1263 111.644 102.884 105.391 109.554 104.78C116.224 104.168 122.281 109.429 123.083 116.53C123.885 123.631 119.127 129.883 112.457 130.495C105.787 131.106 99.7299 125.846 98.9281 118.745Z" fill="#263238"/>
<path d="M103.585 107.148L109.736 130.42C110.633 130.551 111.546 130.575 112.45 130.491H112.519C113.699 130.219 113.172 130.513 114.356 130.16C117.366 129.264 121.738 127.68 121.738 127.68C126.372 125.649 128.99 120.711 128.353 115.069C127.583 108.233 122.141 103.128 115.735 103.546C115.735 103.546 112.694 104.052 109.564 104.786C108.188 105.096 106.812 105.465 105.68 105.85C104.931 106.212 104.228 106.647 103.585 107.148V107.148Z" fill="#263238"/>
<path opacity="0.3" d="M98.9275 118.73C99.6155 124.853 104.215 129.605 109.743 130.408C110.64 130.539 111.553 130.563 112.457 130.479H112.526C113.785 130.356 115.009 130.028 116.138 129.509C120.785 127.385 123.726 122.227 123.083 116.523C122.282 109.427 116.238 104.172 109.571 104.774H109.554C108.2 104.897 106.886 105.258 105.687 105.837V105.837C104.938 106.2 104.235 106.637 103.592 107.139C100.3 109.718 98.384 114.046 98.9275 118.73Z" fill="black"/>
<path d="M100.603 110.577C100.804 110.287 101.035 110.014 101.291 109.762C102.828 107.871 106.344 107.164 108.645 107.331C110.41 107.486 112.104 108.034 113.575 108.925C115.254 109.904 116.454 111.405 118.119 112.434C121.277 114.399 126.069 114.344 129.241 112.319C129.42 112.205 129.59 112.079 129.75 111.944C130.073 111.641 130.289 111.258 130.369 110.844C130.49 110.327 130.446 109.789 130.242 109.294C129.554 107.551 127.259 106.02 125.811 105.087C122.875 103.22 119.421 102.124 115.835 101.922C105.608 101.286 101.246 109.157 100.603 110.577Z" fill="#FF3E3E"/>
<path opacity="0.3" d="M101.312 110.825C103.51 107.967 106.331 107.164 108.632 107.331C110.396 107.486 112.09 108.034 113.562 108.925C115.24 109.904 116.441 111.405 118.106 112.434C121.264 114.399 126.056 114.344 129.227 112.319C129.406 112.205 129.576 112.079 129.736 111.944C130.06 111.641 130.275 111.258 130.356 110.844C130.477 110.327 130.433 109.789 130.228 109.294C129.165 110.4 126.069 113.066 121.876 111.774C116.647 110.146 115.371 105.31 109.781 105.354C105.34 105.4 102.605 108.5 101.312 110.825Z" fill="black"/>
<g opacity="0.3">
<path opacity="0.3" d="M124.315 104.234C122.823 103.279 121.145 102.586 119.368 102.191C117.589 101.784 115.748 101.647 113.919 101.788C112.093 101.947 110.306 102.357 108.618 103.004L107.992 103.252L107.38 103.528C106.967 103.701 106.578 103.918 106.179 104.117C105.78 104.315 105.412 104.56 105.03 104.78C104.648 105 104.29 105.257 103.926 105.502C105.426 104.596 107.028 103.835 108.704 103.23C110.377 102.625 112.14 102.246 113.936 102.105C115.729 101.95 117.537 102.055 119.292 102.415C120.174 102.591 121.038 102.831 121.876 103.134C122.726 103.429 123.543 103.797 124.315 104.234V104.234Z" fill="black"/>
</g>
<g opacity="0.3">
<path opacity="0.3" d="M113.176 102.018C113.605 100.725 113.862 99.3911 113.943 98.0437C114.057 96.7014 114.081 95.3529 114.05 94.0137C114.019 92.6745 113.915 91.3229 113.778 89.9837L113.527 87.9811C113.417 87.3146 113.32 86.6481 113.183 85.9847L113.496 90.0147L113.62 92.0235C113.64 92.6931 113.685 93.3627 113.688 94.0323C113.747 95.3715 113.719 96.7107 113.664 98.0623C113.64 98.7319 113.582 99.3984 113.506 100.065C113.446 100.722 113.335 101.374 113.176 102.018V102.018Z" fill="black"/>
</g>
<path opacity="0.3" d="M92.9831 113.15C100.166 108.987 100.451 98.2452 100.207 91.1586C100.162 89.9403 100.107 88.8336 100.066 87.8819C99.9907 86.9293 99.9907 85.9731 100.066 85.0206C100.792 80.1536 104.92 79.5677 104.92 79.5677H104.903C100.331 80.3241 99.237 83.5636 99.5019 87.1999C99.5019 87.1999 99.5019 87.2247 99.5019 87.2743C99.5019 87.3239 99.5019 87.3518 99.5019 87.4076V87.4386C99.6567 89.7791 100.613 108.562 92.9831 113.15Z" fill="black"/>
<path opacity="0.2" d="M93.568 76.4646C94.17 77.0319 101.955 75.578 103.314 76.229C103.888 76.5018 104.139 77.469 104.717 78.5292C106.341 80.8542 108.625 81.22 108.766 81.2386C106.041 79.3786 105.281 74.9022 106.633 72.0719C107.985 69.2416 112.825 69.9763 113.1 70.06C112.275 69.733 111.387 69.553 110.486 69.5299C107.868 69.4059 104.676 70.0693 103.781 71.5635C101.965 74.6108 94.1769 73.9257 93.4614 74.7255C92.7459 75.5253 92.966 75.8973 93.568 76.4646Z" fill="black"/>
<path d="M99.6636 73.7583C100.137 74.5454 100.326 75.446 100.204 76.3344L93.6092 77.004C93.2721 76.6524 93.0229 76.2395 92.8787 75.7934C92.7344 75.3472 92.6985 74.8784 92.7733 74.4186C92.7733 74.4186 99.3058 73.8265 99.6636 73.7583Z" fill="#263238"/>
<path d="M119.688 73.5382C119.688 73.5382 120.345 72.2796 119.557 71.4829C121.318 71.3403 122.409 71.1729 123.544 71.0241C123.713 71.486 123.795 71.9293 123.2 72.633C122.605 73.3367 119.688 73.5382 119.688 73.5382Z" fill="#263238"/>
<path d="M123.352 81.4153C124.494 83.0924 125.471 85.777 125.557 90.0643" stroke="#FF3E3E" stroke-linecap="round" stroke-linejoin="round"/>
<path d="M119.592 78.6501C120.422 78.8238 121.186 79.1953 121.803 79.7258" stroke="#FF3E3E" stroke-linecap="round" stroke-linejoin="round"/>
<path d="M68.291 62.4898L72.6322 62.9672C72.6322 62.9672 73.389 70.1561 74.0908 71.5542C74.0908 71.5542 87.4414 73.2096 92.9145 73.0639L95.6905 74.7627L95.7869 77.7201L93.0658 77.7914L92.1886 75.9314C92.1886 75.9314 90.3517 75.8601 89.9285 74.927C89.9285 74.927 75.742 78.027 70.5166 74.493C70.5201 74.4806 67.3656 70.3111 68.291 62.4898Z" fill="#FFC3BD"/>
<path opacity="0.2" d="M103.64 117.8C103.764 121.7 106.599 124.787 109.973 124.701C110.427 124.688 110.876 124.618 111.308 124.493C114.012 123.718 115.959 120.844 115.852 117.481C115.746 114.226 113.754 111.535 111.136 110.788C110.613 110.636 110.065 110.566 109.516 110.58C106.141 110.67 103.513 113.913 103.64 117.8Z" fill="#FAFAFA"/>
<path d="M106.747 117.8C106.853 121.129 108.811 123.867 111.308 124.502C114.012 123.727 115.959 120.854 115.852 117.49C115.746 114.235 113.754 111.544 111.136 110.797C108.535 111.433 106.64 114.353 106.747 117.8Z" fill="#263238"/>
<path opacity="0.2" d="M50.6368 118.11C50.7641 122.01 53.5987 125.101 56.9699 125.011C57.4236 125 57.8732 124.93 58.3046 124.803C61.0119 124.028 62.9589 121.157 62.8488 117.791C62.7456 114.539 60.7539 111.845 58.136 111.098C57.6129 110.946 57.065 110.876 56.5158 110.89C53.1411 110.98 50.513 114.216 50.6368 118.11Z" fill="#FAFAFA"/>
<path d="M53.7432 118.11C53.8532 121.436 55.8071 124.174 58.3046 124.809C61.0119 124.034 62.9589 121.164 62.8488 117.797C62.7456 114.545 60.7539 111.851 58.136 111.104C55.532 111.74 53.6331 114.66 53.7432 118.11Z" fill="#263238"/>
<path d="M45.3184 107.837C45.2599 111.671 51.7375 114.21 62.5769 115.81C65.4987 116.273 68.4847 116.304 71.4177 115.903C76.2337 115.187 78.5867 113.352 78.5867 113.352C78.5867 113.352 77.362 100.099 65.2429 98.4188C56.9869 97.278 50.7743 100.279 47.6232 103.512C46.1406 105.031 45.3356 106.609 45.3184 107.837Z" fill="#FF3E3E"/>
<path opacity="0.3" d="M45.3185 107.837C45.26 111.671 51.7375 114.21 62.5769 115.81C65.4988 116.273 68.4847 116.304 71.4177 115.903C70.8983 112.304 68.566 102.864 58.4283 101.885C53.829 101.438 50.2789 102.275 47.6233 103.512C46.1406 105.031 45.3357 106.609 45.3185 107.837Z" fill="black"/>
<g opacity="0.3">
<path opacity="0.3" d="M77.885 113.41C77.662 111.606 77.1846 109.835 76.4643 108.14C75.756 106.428 74.7782 104.816 73.5609 103.354C72.9458 102.627 72.2547 101.956 71.4969 101.348C70.7461 100.731 69.9184 100.194 69.0304 99.7487C67.2636 98.8508 65.3057 98.3003 63.2856 98.1336C64.2755 98.2831 65.2492 98.5092 66.1959 98.8094C66.674 98.9396 67.1247 99.1411 67.5719 99.3116C68.0206 99.5053 68.4581 99.7194 68.8825 99.9533C69.316 100.177 69.715 100.446 70.1244 100.697C70.5337 100.948 70.9121 101.246 71.2733 101.559C72.0079 102.161 72.6771 102.824 73.272 103.54C74.4804 104.974 75.4653 106.55 76.1994 108.224C76.5805 109.058 76.909 109.911 77.1832 110.779C77.4751 111.642 77.7095 112.521 77.885 113.41V113.41Z" fill="black"/>
</g>
<path d="M94.1494 109.033L93.4339 111.222L85.9312 110.658L85.8315 107.598L94.1494 109.033Z" fill="#FF3E3E"/>
<path d="M49.481 94.1067L32.9724 93.5022" stroke="#FF3E3E" stroke-linecap="round" stroke-linejoin="round"/>
<path d="M27.5166 90.7928L25.0639 90.7029" stroke="#FF3E3E" stroke-linecap="round" stroke-linejoin="round"/>
<path d="M41.5688 91.3074L29.3981 90.861" stroke="#FF3E3E" stroke-linecap="round" stroke-linejoin="round"/>
<path d="M33.0515 99.0078L22.8519 98.6358" stroke="#FF3E3E" stroke-linecap="round" stroke-linejoin="round"/>
<path d="M39.3569 99.2403L34.9124 99.076" stroke="#FF3E3E" stroke-linecap="round" stroke-linejoin="round"/>
</svg>
