<svg width="22" height="22" viewBox="0 0 22 22" fill="none" xmlns="http://www.w3.org/2000/svg">
<path d="M21.0834 2.75916C21.0834 2.75916 19.2336 3.85182 18.2051 4.16166C17.653 3.52687 16.9193 3.07696 16.1032 2.87276C15.2871 2.66855 14.428 2.71992 13.642 3.01991C12.856 3.31989 12.1812 3.85402 11.7086 4.55006C11.2361 5.2461 10.9888 6.07046 11.0001 6.91166V7.82832C9.38916 7.87009 7.79292 7.51282 6.35351 6.78832C4.9141 6.06381 3.67621 4.99457 2.75008 3.67582C2.75008 3.67582 -0.916585 11.9258 7.33341 15.5925C5.44556 16.874 3.19664 17.5165 0.916748 17.4258C9.16675 22.0092 19.2501 17.4258 19.2501 6.88416C19.2501 6.62932 19.2244 6.37449 19.1767 6.12332C20.1117 5.20116 21.0834 2.75916 21.0834 2.75916Z" stroke="white" stroke-width="1.6" stroke-linecap="round" stroke-linejoin="round"/>
</svg>
