<svg width="22" height="22" viewBox="0 0 22 22" fill="none" xmlns="http://www.w3.org/2000/svg">
<path d="M21.0833 2.75916C21.0833 2.75916 19.2335 3.85182 18.205 4.16166C17.6529 3.52687 16.9192 3.07696 16.1031 2.87276C15.287 2.66855 14.4279 2.71992 13.6419 3.01991C12.8559 3.31989 12.1811 3.85402 11.7086 4.55006C11.2361 5.2461 10.9887 6.07046 11 6.91166V7.82832C9.38907 7.87009 7.79282 7.51282 6.35341 6.78832C4.914 6.06381 3.67611 4.99457 2.74999 3.67582C2.74999 3.67582 -0.916677 11.9258 7.33332 15.5925C5.44547 16.874 3.19655 17.5165 0.916656 17.4258C9.16666 22.0092 19.25 17.4258 19.25 6.88416C19.25 6.62932 19.2243 6.37449 19.1767 6.12332C20.1117 5.20116 21.0833 2.75916 21.0833 2.75916Z" stroke="white" stroke-width="1.6" stroke-linecap="round" stroke-linejoin="round"/>
</svg>
