<svg width="16" height="16" viewBox="0 0 16 16" fill="none" xmlns="http://www.w3.org/2000/svg">
<path d="M8.38417 0.390015C4.18026 0.390015 0.77417 3.7961 0.77417 8.00001C0.77417 12.2039 4.18026 15.61 8.38417 15.61C12.5881 15.61 15.9942 12.2039 15.9942 8.00001C15.9942 3.7961 12.5881 0.390015 8.38417 0.390015ZM10.1363 11.133L7.42985 9.16606C7.33473 9.09549 7.27949 8.98502 7.27949 8.86841V3.70405C7.27949 3.50152 7.44519 3.33582 7.64772 3.33582H9.12062C9.32315 3.33582 9.48885 3.50152 9.48885 3.70405V7.92944L11.4374 9.34711C11.6031 9.46678 11.6368 9.69692 11.5172 9.86262L10.6518 11.0532C10.5322 11.2159 10.302 11.2527 10.1363 11.133Z" fill="#797575"/>
</svg>
