<svg width="26" height="32" viewBox="0 0 26 32" fill="none" xmlns="http://www.w3.org/2000/svg">
<path d="M12.5714 0C9.2385 0.00393197 6.04319 1.32968 3.68644 3.68643C1.32969 6.04318 0.00394534 9.23849 1.33747e-05 12.5714C-0.0039785 15.2951 0.885705 17.9449 2.53258 20.1143C2.53258 20.1143 2.87544 20.5657 2.93144 20.6309L12.5714 32L22.216 20.6251C22.2663 20.5646 22.6103 20.1143 22.6103 20.1143L22.6114 20.1109C24.2575 17.9424 25.1468 15.2939 25.1429 12.5714C25.1389 9.23849 23.8132 6.04318 21.4564 3.68643C19.0997 1.32968 15.9044 0.00393197 12.5714 0ZM12.5714 17.1429C11.6673 17.1429 10.7835 16.8747 10.0317 16.3724C9.27993 15.8701 8.69399 15.1562 8.34799 14.3208C8.00199 13.4855 7.91146 12.5664 8.08785 11.6796C8.26424 10.7928 8.69963 9.97827 9.33895 9.33894C9.97828 8.69961 10.7928 8.26423 11.6796 8.08784C12.5664 7.91145 13.4855 8.00198 14.3209 8.34798C15.1562 8.69398 15.8701 9.27991 16.3724 10.0317C16.8748 10.7834 17.1429 11.6673 17.1429 12.5714C17.1414 13.7834 16.6592 14.9453 15.8023 15.8022C14.9453 16.6592 13.7834 17.1413 12.5714 17.1429Z" fill="#EB5757"/>
</svg>
