<svg width="21" height="20" viewBox="0 0 21 20" fill="none" xmlns="http://www.w3.org/2000/svg">
<path opacity="0.75" d="M20.2666 7.04257L13.9881 6.1301L11.1815 0.440169C11.1049 0.284382 10.9787 0.158269 10.823 0.0816118C10.4322 -0.111267 9.95747 0.0494654 9.76212 0.440169L6.95548 6.1301L0.677016 7.04257C0.50392 7.0673 0.34566 7.1489 0.224492 7.27254C0.0780074 7.4231 -0.00271244 7.62566 6.95995e-05 7.8357C0.00285164 8.04575 0.088908 8.24609 0.239329 8.39272L4.78188 12.8215L3.70868 19.0753C3.68351 19.2207 3.69961 19.3703 3.75515 19.5071C3.81069 19.6439 3.90344 19.7624 4.0229 19.8492C4.14235 19.9359 4.28372 19.9875 4.43099 19.998C4.57825 20.0085 4.72551 19.9775 4.85606 19.9086L10.4718 16.9561L16.0876 19.9086C16.2409 19.9902 16.4189 20.0174 16.5895 19.9877C17.0198 19.9135 17.3091 19.5055 17.2349 19.0753L16.1617 12.8215L20.7043 8.39272C20.8279 8.27156 20.9095 8.1133 20.9343 7.9402C21.001 7.50746 20.6993 7.10686 20.2666 7.04257Z" fill="#ECF015"/>
</svg>
