<svg width="22" height="20" viewBox="0 0 22 20" fill="none" xmlns="http://www.w3.org/2000/svg">
<path opacity="0.75" d="M21.1536 7.04257L14.8751 6.1301L12.0685 0.440169C11.9918 0.284382 11.8657 0.158269 11.7099 0.0816118C11.3192 -0.111267 10.8444 0.0494654 10.6491 0.440169L7.84244 6.1301L1.56398 7.04257C1.39088 7.0673 1.23262 7.1489 1.11146 7.27254C0.96497 7.4231 0.88425 7.62566 0.887032 7.8357C0.889815 8.04575 0.975871 8.24609 1.12629 8.39272L5.66884 12.8215L4.59564 19.0753C4.57048 19.2207 4.58657 19.3703 4.64211 19.5071C4.69765 19.6439 4.7904 19.7624 4.90986 19.8492C5.02931 19.9359 5.17069 19.9875 5.31795 19.998C5.46521 20.0085 5.61247 19.9775 5.74303 19.9086L11.3588 16.9561L16.9745 19.9086C17.1278 19.9902 17.3059 20.0174 17.4765 19.9877C17.9068 19.9135 18.1961 19.5055 18.1219 19.0753L17.0487 12.8215L21.5913 8.39272C21.7149 8.27156 21.7965 8.1133 21.8212 7.9402C21.888 7.50746 21.5863 7.10686 21.1536 7.04257Z" fill="#ECF015"/>
</svg>
