<svg width="22" height="20" viewBox="0 0 22 20" fill="none" xmlns="http://www.w3.org/2000/svg">
<path opacity="0.75" d="M21.0972 7.04257L14.8187 6.1301L12.0121 0.440169C11.9354 0.284382 11.8093 0.158269 11.6535 0.0816118C11.2628 -0.111267 10.788 0.0494654 10.5927 0.440169L7.78604 6.1301L1.50758 7.04257C1.33449 7.0673 1.17623 7.1489 1.05506 7.27254C0.908574 7.4231 0.827854 7.62566 0.830636 7.8357C0.833418 8.04575 0.919474 8.24609 1.0699 8.39272L5.61245 12.8215L4.53925 19.0753C4.51408 19.2207 4.53018 19.3703 4.58572 19.5071C4.64125 19.6439 4.73401 19.7624 4.85346 19.8492C4.97292 19.9359 5.11429 19.9875 5.26155 19.998C5.40882 20.0085 5.55607 19.9775 5.68663 19.9086L11.3024 16.9561L16.9181 19.9086C17.0714 19.9902 17.2495 20.0174 17.4201 19.9877C17.8504 19.9135 18.1397 19.5055 18.0655 19.0753L16.9923 12.8215L21.5349 8.39272C21.6585 8.27156 21.7401 8.1133 21.7648 7.9402C21.8316 7.50746 21.5299 7.10686 21.0972 7.04257Z" fill="#ECF015"/>
</svg>
