<svg width="22" height="20" viewBox="0 0 22 20" fill="none" xmlns="http://www.w3.org/2000/svg">
<path opacity="0.75" d="M21.2102 7.04257L14.9318 6.1301L12.1251 0.440169C12.0485 0.284382 11.9223 0.158269 11.7666 0.0816118C11.3759 -0.111267 10.9011 0.0494654 10.7057 0.440169L7.89908 6.1301L1.62062 7.04257C1.44752 7.0673 1.28926 7.1489 1.1681 7.27254C1.02161 7.4231 0.940891 7.62566 0.943673 7.8357C0.946455 8.04575 1.03251 8.24609 1.18293 8.39272L5.72548 12.8215L4.65228 19.0753C4.62712 19.2207 4.64321 19.3703 4.69875 19.5071C4.75429 19.6439 4.84705 19.7624 4.9665 19.8492C5.08595 19.9359 5.22733 19.9875 5.37459 19.998C5.52185 20.0085 5.66911 19.9775 5.79967 19.9086L11.4154 16.9561L17.0312 19.9086C17.1845 19.9902 17.3625 20.0174 17.5331 19.9877C17.9634 19.9135 18.2527 19.5055 18.1785 19.0753L17.1053 12.8215L21.6479 8.39272C21.7715 8.27156 21.8531 8.1133 21.8779 7.9402C21.9446 7.50746 21.643 7.10686 21.2102 7.04257Z" fill="#ECF015"/>
</svg>
