<svg width="22" height="22" viewBox="0 0 22 22" fill="none" xmlns="http://www.w3.org/2000/svg">
<path opacity="0.75" d="M20.4194 1.58928C20.2343 1.40207 20.0138 1.25355 19.7708 1.15238C19.5278 1.05122 19.267 0.999418 19.0038 1H13.516C13.156 1.00068 12.8108 1.14328 12.5553 1.39687L1.58458 12.3654C1.21024 12.7405 1 13.2488 1 13.7787C1 14.3087 1.21024 14.817 1.58458 15.1921L6.80767 20.4152C7.18288 20.7897 7.69135 21 8.22147 21C8.7516 21 9.26007 20.7897 9.63528 20.4152L20.6015 9.45114C20.8556 9.19604 20.9987 8.85095 20.9997 8.49089V2.99996C21.0014 2.73809 20.9509 2.47851 20.8513 2.23633C20.7516 1.99414 20.6048 1.77419 20.4194 1.58928V1.58928ZM16.7141 6.71415C16.4316 6.71415 16.1554 6.63037 15.9205 6.4734C15.6855 6.31643 15.5025 6.09332 15.3943 5.83229C15.2862 5.57126 15.2579 5.28403 15.313 5.00692C15.3682 4.72981 15.5042 4.47527 15.704 4.27549C15.9038 4.0757 16.1583 3.93965 16.4354 3.88453C16.7125 3.82941 16.9998 3.8577 17.2608 3.96582C17.5218 4.07394 17.7449 4.25704 17.9019 4.49196C18.0589 4.72688 18.1427 5.00308 18.1427 5.28561C18.1427 5.66449 17.9922 6.02784 17.7243 6.29574C17.4563 6.56364 17.093 6.71415 16.7141 6.71415Z" stroke="#FC8019" stroke-width="1.5"/>
</svg>
